<svg width="15" height="15" viewBox="0 0 15 15" fill="none" xmlns="http://www.w3.org/2000/svg">
<path fill-rule="evenodd" clip-rule="evenodd" d="M10.7399 9.67932C11.5297 8.66333 12 7.3866 12 6C12 2.68628 9.31372 0 6 0C2.68628 0 0 2.68628 0 6C0 9.31372 2.68628 12 6 12C7.38657 12 8.66324 11.5297 9.67926 10.7399L12.9697 14.0303C13.2626 14.3232 13.7374 14.3232 14.0303 14.0303C14.3232 13.7374 14.3232 13.2626 14.0303 12.9697L10.7399 9.67932ZM9.29935 8.77722C9.93158 8.02698 10.3125 7.05798 10.3125 6C10.3125 3.61829 8.38174 1.6875 6 1.6875C3.61826 1.6875 1.68747 3.61829 1.68747 6C1.68747 8.38171 3.61826 10.3125 6 10.3125C7.05795 10.3125 8.02692 9.93152 8.77722 9.29932C8.81061 9.17859 8.87476 9.06458 8.96967 8.96973C9.06458 8.87476 9.17859 8.81067 9.29935 8.77722Z" fill="#E8CCCC"/>
</svg>
